<svg width="219" height="29" viewBox="0 0 219 29" fill="none" xmlns="http://www.w3.org/2000/svg">
<path d="M8.464 2.4H21.092C21.512 2.4 21.708 2.596 21.708 3.016V5.76C21.708 6.18 21.512 6.404 21.092 6.404H8.632C5.748 6.404 4.908 7.244 4.908 10.212V14.188C4.908 17.156 5.748 18.024 8.632 18.024H21.092C21.512 18.024 21.708 18.22 21.708 18.64V21.384C21.708 21.804 21.512 22 21.092 22H8.464C2.808 22 0.624 19.984 0.624 14.608V9.792C0.624 4.416 2.808 2.4 8.464 2.4ZM31.0198 6.628H38.9438C43.9838 6.628 45.6078 8.252 45.6078 12.312V16.344C45.6078 20.404 43.9838 22 38.9438 22H31.0198C25.9798 22 24.3558 20.404 24.3558 16.344V12.312C24.3558 8.252 25.9798 6.628 31.0198 6.628ZM28.3598 12.984V15.644C28.3598 17.996 29.0038 18.724 31.4118 18.724H38.5518C40.9878 18.724 41.6318 17.996 41.6318 15.644V12.984C41.6318 10.632 40.9878 9.932 38.5518 9.932H31.4118C29.0038 9.932 28.3598 10.632 28.3598 12.984ZM55.4963 6.628H69.8043C74.8443 6.628 76.4403 8.252 76.4403 12.312V21.384C76.4403 21.804 76.2443 22 75.8243 22H73.0803C72.6603 22 72.4643 21.804 72.4643 21.384V13.264C72.4643 10.912 72.0163 10.184 69.5803 10.184H64.6523V21.384C64.6523 21.804 64.4283 22 64.0083 22H61.2643C60.8443 22 60.6483 21.804 60.6483 21.384V10.184H55.8883C53.4803 10.184 52.8363 10.912 52.8363 13.264V21.384C52.8363 21.804 52.6403 22 52.2203 22H49.4763C49.0563 22 48.8323 21.804 48.8323 21.384V12.312C48.8323 8.252 50.4563 6.628 55.4963 6.628ZM86.5042 6.628H94.3442C99.3842 6.628 101.008 8.252 101.008 12.312V16.344C101.008 20.404 99.3842 22 94.3442 22H83.8442V27.572C83.8442 27.992 83.6482 28.188 83.2282 28.188H80.4842C80.0642 28.188 79.8402 27.992 79.8402 27.572V12.312C79.8402 8.252 81.4642 6.628 86.5042 6.628ZM83.8442 13.068V18.64H93.9522C96.3882 18.64 97.0322 17.94 97.0322 15.56V13.068C97.0322 10.716 96.3882 9.988 93.9522 9.988H86.8962C84.4882 9.988 83.8442 10.716 83.8442 13.068ZM104.651 6.628H116.747C121.787 6.628 123.411 8.252 123.411 12.312V19.76C123.411 21.58 122.963 22 121.339 22H108.011C104.707 22 103.699 20.796 103.699 18.024V16.68C103.699 14.328 104.707 13.012 108.011 13.012H119.407V12.48C119.407 10.688 118.791 9.988 116.355 9.988H104.651C104.315 9.988 104.147 9.848 104.147 9.484V7.132C104.147 6.796 104.315 6.628 104.651 6.628ZM118.595 18.92C119.183 18.92 119.407 18.668 119.407 17.968V15.504H109.159C108.011 15.504 107.591 15.98 107.591 16.876V17.464C107.591 18.472 108.011 18.92 109.159 18.92H118.595ZM132.989 6.628H140.829C141.165 6.628 141.333 6.796 141.333 7.132V9.484C141.333 9.848 141.165 9.988 140.829 9.988H133.381C130.973 9.988 130.329 10.716 130.329 13.068V21.384C130.329 21.804 130.133 22 129.713 22H126.969C126.549 22 126.325 21.804 126.325 21.384V12.312C126.325 8.252 127.949 6.628 132.989 6.628ZM144.224 6.628H146.968C147.388 6.628 147.584 6.852 147.584 7.272V21.384C147.584 21.804 147.388 22 146.968 22H144.224C143.804 22 143.608 21.804 143.608 21.384V7.272C143.608 6.852 143.804 6.628 144.224 6.628ZM144.224 0.943999H146.968C147.388 0.943999 147.584 1.14 147.584 1.56V4.22C147.584 4.64 147.388 4.864 146.968 4.864H144.224C143.804 4.864 143.58 4.64 143.58 4.22V1.56C143.58 1.14 143.804 0.943999 144.224 0.943999ZM155.187 6.628H168.851C169.187 6.628 169.355 6.796 169.355 7.132V9.372C169.355 9.708 169.187 9.876 168.851 9.876H156.223C155.075 9.876 154.683 10.324 154.683 11.136V11.556C154.683 12.312 155.075 12.76 156.223 12.76H165.659C168.795 12.76 170.027 14.104 170.027 16.512V18.08C170.027 20.544 168.935 22 165.631 22H151.295C150.959 22 150.791 21.832 150.791 21.496V19.256C150.791 18.92 150.959 18.752 151.295 18.752H164.567C165.715 18.752 166.135 18.36 166.135 17.408V16.652C166.135 15.924 165.715 15.476 164.567 15.476H155.159C152.023 15.476 150.791 14.16 150.791 11.696V10.464C150.791 8.14 151.883 6.628 155.187 6.628ZM179.469 6.628H187.393C192.433 6.628 194.057 8.252 194.057 12.312V16.344C194.057 20.404 192.433 22 187.393 22H179.469C174.429 22 172.805 20.404 172.805 16.344V12.312C172.805 8.252 174.429 6.628 179.469 6.628ZM176.809 12.984V15.644C176.809 17.996 177.453 18.724 179.861 18.724H187.001C189.437 18.724 190.081 17.996 190.081 15.644V12.984C190.081 10.632 189.437 9.932 187.001 9.932H179.861C177.453 9.932 176.809 10.632 176.809 12.984ZM203.946 6.628H211.982C217.022 6.628 218.646 8.252 218.646 12.312V21.384C218.646 21.804 218.45 22 218.03 22H215.286C214.866 22 214.67 21.804 214.67 21.384V13.264C214.67 10.912 214.194 10.184 211.786 10.184H204.338C201.93 10.184 201.286 10.912 201.286 13.264V21.384C201.286 21.804 201.09 22 200.67 22H197.926C197.506 22 197.282 21.804 197.282 21.384V12.312C197.282 8.252 198.906 6.628 203.946 6.628Z" fill="#E4B40D"/>
</svg>
